<svg width="34" height="40" viewBox="0 0 34 40" fill="none" xmlns="http://www.w3.org/2000/svg">
<path fill-rule="evenodd" clip-rule="evenodd" d="M7.35281 29.3334L8.92614 27.7574C9.43014 27.2534 9.70748 26.584 9.70748 25.872V19.636C9.70748 17.8267 10.4941 16.0974 11.8675 14.8947C13.2515 13.6814 15.0141 13.148 16.8501 13.3894C19.9528 13.8014 22.2928 16.6067 22.2928 19.916V25.872C22.2928 26.584 22.5701 27.2534 23.0728 27.756L24.6475 29.3334H7.35281ZM18.6661 32.4547C18.6661 33.6534 17.4448 34.6667 15.9995 34.6667C14.5541 34.6667 13.3328 33.6534 13.3328 32.4547V32H18.6661V32.4547ZM27.3608 28.2774L24.9595 25.872V19.916C24.9595 15.2747 21.6235 11.332 17.1995 10.7467C14.6368 10.4054 12.0501 11.188 10.1101 12.8894C8.15814 14.5987 7.0408 17.0574 7.0408 19.636L7.03947 25.872L4.63814 28.2774C4.0128 28.904 3.82747 29.836 4.16614 30.6534C4.50614 31.472 5.2968 32 6.18214 32H10.6661V32.4547C10.6661 35.1454 13.0581 37.3334 15.9995 37.3334C18.9408 37.3334 21.3328 35.1454 21.3328 32.4547V32H25.8168C26.7021 32 27.4915 31.472 27.8301 30.6547C28.1701 29.836 27.9861 28.9027 27.3608 28.2774Z" fill="#222B45"/>
<mask id="mask0" mask-type="alpha" maskUnits="userSpaceOnUse" x="3" y="10" width="25" height="28">
<path fill-rule="evenodd" clip-rule="evenodd" d="M7.35281 29.3334L8.92614 27.7574C9.43014 27.2534 9.70748 26.584 9.70748 25.872V19.636C9.70748 17.8267 10.4941 16.0974 11.8675 14.8947C13.2515 13.6814 15.0141 13.148 16.8501 13.3894C19.9528 13.8014 22.2928 16.6067 22.2928 19.916V25.872C22.2928 26.584 22.5701 27.2534 23.0728 27.756L24.6475 29.3334H7.35281ZM18.6661 32.4547C18.6661 33.6534 17.4448 34.6667 15.9995 34.6667C14.5541 34.6667 13.3328 33.6534 13.3328 32.4547V32H18.6661V32.4547ZM27.3608 28.2774L24.9595 25.872V19.916C24.9595 15.2747 21.6235 11.332 17.1995 10.7467C14.6368 10.4054 12.0501 11.188 10.1101 12.8894C8.15814 14.5987 7.0408 17.0574 7.0408 19.636L7.03947 25.872L4.63814 28.2774C4.0128 28.904 3.82747 29.836 4.16614 30.6534C4.50614 31.472 5.2968 32 6.18214 32H10.6661V32.4547C10.6661 35.1454 13.0581 37.3334 15.9995 37.3334C18.9408 37.3334 21.3328 35.1454 21.3328 32.4547V32H25.8168C26.7021 32 27.4915 31.472 27.8301 30.6547C28.1701 29.836 27.9861 28.9027 27.3608 28.2774Z" fill="white"/>
</mask>
<g mask="url(#mask0)">
</g>
<circle cx="22" cy="12" r="10" fill="#E1544E" stroke="white" stroke-width="4"/>
</svg>
